# xmcd CD database file
#
# Track frame offsets:
#	150
#	12799
#	46934
#	80099
#	110182
#	140233
#	170924
#	195251
#	219941
#
# Disc length: 3119 seconds
#
# Revision: 0
# Processed by: cddbd v1.5.2PL0 Copyright (c) Steve Scherf et al.
# Submitted via: CDex 1.79
#
DISCID=7f0c2d09
DTITLE=Alan Benzie Trio - Little Mysteries
DYEAR=1900
DGENRE=Jazz
TTITLE0=Natsume
TTITLE1=The Warrior Who Became A Tiger
TTITLE2=Beslan
TTITLE3=Hatake Song
TTITLE4=Sunken Ruins
TTITLE5=Red Street
TTITLE6=There Will Be Other Sunsets
TTITLE7=Inexorable
TTITLE8=The Rest Of His Days
EXTD=
EXTT0=
EXTT1=
EXTT2=
EXTT3=
EXTT4=
EXTT5=
EXTT6=
EXTT7=
EXTT8=
PLAYORDER=
